Coordinates
version=1
nRows=25
nColumns=23
inDegrees=yes

Units are S.I. units (second, meters, Newtons, ...)
If the header above contains a line with 'inDegrees', this indicates whether rotational values are in degrees (yes) or radians (no).

endheader
time	pelvis_tilt	pelvis_list	pelvis_rotation	pelvis_tx	pelvis_ty	pelvis_tz	hip_flexion_r	hip_adduction_r	hip_rotation_r	knee_angle_r	knee_angle_r_beta	ankle_angle_r	subtalar_angle_r	mtp_angle_r	hip_flexion_l	hip_adduction_l	hip_rotation_l	knee_angle_l	knee_angle_l_beta	ankle_angle_l	subtalar_angle_l	mtp_angle_l
     15.00000000	     -1.19279133	    -14.04721136	     -2.97855306	      2.06616378	      1.04006386	      1.04601101	     15.93983509	     13.98505225	    -11.13377371	     46.76769077	      0.81625019	     28.59096875	      4.90467127	      0.00000000	     21.61155885	    -12.85140786	      6.06004951	    113.85850030	      1.98720571	     -2.92075567	     -8.71723628	      0.00000000
     15.00666667	     -1.36927775	    -13.55161255	     -3.00903042	      2.06483278	      1.04227144	      1.04612775	     14.15844966	     13.60671199	    -10.48767298	     45.63461677	      0.79647432	     28.72954465	      5.28977340	      0.00000000	     23.88349542	    -11.89384292	      6.67896087	    113.73541938	      1.98505754	     -2.46514558	     -8.49515209	      0.00000000
     15.01333333	     -1.58710473	    -13.09754509	     -2.64508972	      2.06382094	      1.04449665	      1.04570851	     12.38688160	     12.96144689	    -10.75728080	     44.39320357	      0.77480757	     28.75929190	      6.43372357	      0.00000000	     26.25368926	    -10.84342497	      7.55885669	    113.43558922	      1.97982452	     -1.45279558	     -7.77933550	      0.00000000
     15.02000000	     -1.89410054	    -12.49615150	     -2.70827501	      2.06301877	      1.04726636	      1.04583280	     10.63381456	     12.42353715	    -10.25768559	     43.02570148	      0.75094015	     28.63936673	      6.93591323	      0.00000000	     28.41635257	     -9.88066811	      7.80615688	    112.73230480	      1.96754989	     -0.72181871	     -7.78655666	      0.00000000
     15.02666667	     -1.98394080	    -11.79753076	     -2.69777302	      2.06260030	      1.05063723	      1.04578512	      8.59313815	     11.65956250	    -10.03652954	     41.55008926	      0.72518586	     28.39268310	      7.90353792	      0.00000000	     30.18387701	     -8.84300454	      7.85650068	    111.70324300	      1.94958938	      0.09023373	     -8.00132334	      0.00000000
     15.03333333	     -2.09381385	    -10.98353201	     -2.85543165	      2.06245549	      1.05436021	      1.04581323	      6.55474555	     10.77688305	     -9.69228824	     40.01650043	      0.69841969	     27.92940810	      8.91314632	      0.00000000	     31.77516234	     -7.81183367	      7.56586841	    110.36524215	      1.92623686	      0.78901320	     -8.66262672	      0.00000000
     15.04000000	     -2.32475233	    -10.15892254	     -3.07278676	      2.06256749	      1.05822492	      1.04589801	      4.63906814	      9.90534683	     -9.29446536	     38.38651362	      0.66997105	     27.08741625	      9.62099618	      0.00000000	     33.36071448	     -6.85739467	      7.13800524	    108.78444259	      1.89864670	      1.50603142	     -9.57002099	      0.00000000
     15.04666667	     -2.74570230	     -9.33587629	     -3.37998146	      2.06290302	      1.06204761	      1.04604967	      2.95012114	      9.03387115	     -8.88638468	     36.71648654	      0.64082358	     25.76591832	     10.20851922	      0.00000000	     35.03024566	     -6.02008396	      6.57380278	    106.99891448	      1.86748335	      2.29729988	    -10.56414583	      0.00000000
     15.05333333	     -2.89949762	     -8.40341592	     -3.59450331	      2.06368236	      1.06652494	      1.04599948	      0.94118045	      8.01480080	     -8.55313566	     34.87829673	      0.60874112	     24.05328098	     10.65187020	      0.00000000	     36.22103137	     -5.04612501	      5.90502509	    104.88671272	      1.83061848	      2.80599441	    -12.10564384	      0.00000000
     15.06000000	     -3.06254614	     -7.46661411	     -3.78814142	      2.06467959	      1.07109896	      1.04590846	     -1.02909135	      6.97715455	     -8.30933627	     32.98893163	      0.57576547	     22.07336136	     10.97422066	      0.00000000	     37.30262102	     -4.10556830	      5.20665375	    102.56171736	      1.79003965	      3.23763676	    -13.74816267	      0.00000000
     15.06666667	     -3.31850795	     -6.53038819	     -3.97235647	      2.06588973	      1.07563437	      1.04578059	     -2.86136875	      5.95238148	     -8.09513405	     31.06423434	      0.54217317	     19.68718895	     11.14636067	      0.00000000	     38.37654629	     -3.19478668	      4.49323934	    100.05456359	      1.74628157	      3.68156597	    -15.43702083	      0.00000000
     15.07333333	     -3.63914423	     -5.58160575	     -4.10159116	      2.06730710	      1.08011101	      1.04556982	     -4.58249246	      4.93783150	     -7.92507413	     29.11522478	      0.50815653	     16.99127164	     11.15442270	      0.00000000	     39.40842145	     -2.27594738	      3.79228098	     97.36653022	      1.69936653	      4.08603342	    -17.11122514	      0.00000000
     15.08000000	     -4.01738698	     -4.62618538	     -4.15496773	      2.06887194	      1.08448859	      1.04528907	     -6.17729403	      3.93096338	     -7.85854508	     27.18927155	      0.47454231	     14.00866961	     11.00469298	      0.00000000	     40.40338467	     -1.33997588	      3.13589110	     94.50643760	      1.64944850	      4.43392283	    -18.67524770	      0.00000000
     15.08666667	     -4.44770887	     -3.68328307	     -4.11696809	      2.07051943	      1.08873205	      1.04489969	     -7.65412136	      2.97362663	     -7.84887290	     25.29949559	      0.44155950	     10.85371210	     10.69717707	      0.00000000	     41.35716514	     -0.38587498	      2.55423017	     91.48562793	      1.59672543	      4.78150986	    -20.02833220	      0.00000000
     15.09333333	     -4.95246150	     -2.74902121	     -3.97133112	      2.07220333	      1.09272669	      1.04436135	     -8.95220697	      2.03912370	     -8.00361561	     23.54460142	      0.41093082	      7.59584455	     10.36975427	      0.00000000	     42.29589473	      0.62757445	      2.08567766	     88.32065124	      1.54148616	      5.14893366	    -21.09241718	      0.00000000
     15.10000000	     -5.45662601	     -1.86316853	     -3.74193528	      2.07387940	      1.09657129	      1.04374946	    -10.16398697	      1.18852633	     -8.19354176	     21.89945497	      0.38221759	      4.22616999	      9.86105656	      0.00000000	     43.12998996	      1.63082121	      1.71945108	     85.01300284	      1.48375681	      5.54408221	    -21.77594738	      0.00000000
     15.10666667	     -6.01575141	     -1.02095137	     -3.42012940	      2.07555549	      1.10017008	      1.04302156	    -11.20754863	      0.38752729	     -8.57532711	     20.44699755	      0.35686743	      0.89056616	      9.33689931	      0.00000000	     43.91431193	      2.62067197	      1.44792521	     81.56203015	      1.42352597	      6.00676584	    -22.01998949	      0.00000000
     15.11333333	     -6.55479068	     -0.24985964	     -3.01049136	      2.07713163	      1.10358196	      1.04218449	    -12.14021086	     -0.33545775	     -9.10913120	     19.23816382	      0.33576930	     -2.34879731	      8.77683081	      0.00000000	     44.56078651	      3.61133059	      1.31892669	     77.97121619	      1.36085444	      6.53307689	    -21.77877215	      0.00000000
     15.12000000	     -7.03315507	      0.42673602	     -2.55447530	      2.07861659	      1.10681655	      1.04132304	    -13.00172874	     -0.96583440	     -9.78596599	     18.29353340	      0.31928239	     -5.46247847	      8.14068789	      0.00000000	     45.01637961	      4.52677827	      1.29195937	     74.24792943	      1.29587083	      7.11984093	    -21.04335383	      0.00000000
     15.12666667	     -7.40696573	      0.99891942	     -2.06178004	      2.07999723	      1.10991553	      1.04044590	    -13.83172670	     -1.50727067	    -10.65673842	     17.63751212	      0.30783266	     -8.35786173	      7.46094756	      0.00000000	     45.22814761	      5.33950424	      1.34230925	     70.39712865	      1.22866168	      7.77953566	    -19.79597028	      0.00000000
     15.13333333	     -7.69254150	      1.44057599	     -1.56604181	      2.08126112	      1.11282239	      1.03960792	    -14.61126340	     -1.92250294	    -11.61738550	     17.27844155	      0.30156569	    -11.00514973	      6.56989405	      0.00000000	     45.21809312	      5.99475077	      1.44046785	     66.44030935	      1.15960215	      8.52105630	    -17.99926240	      0.00000000
     15.14000000	     -7.84747818	      1.78210465	     -1.07096518	      2.08238643	      1.11552058	      1.03879955	    -15.34454629	     -2.28433417	    -12.81714726	     17.31597595	      0.30222079	    -13.28546445	      5.62649538	      0.00000000	     44.94298405	      6.51457967	      1.54970908	     62.38597777	      1.08884072	      9.28182019	    -15.79107180	      0.00000000
     15.14666667	     -7.85296572	      2.00729696	     -0.60040469	      2.08340652	      1.11797423	      1.03808358	    -16.10235829	     -2.54645690	    -14.09153375	     17.65266973	      0.30809721	    -15.25042804	      4.43413300	      0.00000000	     44.39793779	      6.83710588	      1.58209637	     58.27519930	      1.01709410	     10.10612044	    -13.06309381	      0.00000000
     15.15333333	     -7.69800421	      2.15276553	     -0.18461579	      2.08431034	      1.12015984	      1.03743904	    -16.86293259	     -2.79110611	    -15.50815412	     18.37491919	      0.32070284	    -16.77666980	      3.10828427	      0.00000000	     43.57695875	      6.97896438	      1.47142516	     54.11827773	      0.94454213	     10.86444667	    -10.07196911	      0.00000000
     15.16000000	     -7.43586854	      2.24321219	      0.20345639	      2.08514362	      1.12198024	      1.03687776	    -17.61564046	     -3.01050763	    -16.94428586	     19.40753831	      0.33872544	    -17.87899848	      1.59939804	      0.00000000	     42.55113393	      6.98471221	      1.18515516	     49.95890131	      0.87194732	     11.63973073	     -6.79409363	      0.00000000
